<mxfile host="app.diagrams.net" agent="Mozilla/5.0 (Windows NT 10.0; Win64; x64) AppleWebKit/537.36 (KHTML, like Gecko) Chrome/137.0.0.0 Safari/537.36" version="27.1.1">
  <diagram name="第 1 页" id="UmETh5VLJYESVILgNXj9">
    <mxGraphModel dx="3319" dy="743" grid="1" gridSize="10" guides="1" tooltips="1" connect="1" arrows="1" fold="1" page="1" pageScale="1" pageWidth="827" pageHeight="1169" math="0" shadow="0">
      <root>
        <mxCell id="0" />
        <mxCell id="1" parent="0" />
        <mxCell id="F-SWFyO0qxG9tA38Bt40-18" value="&lt;b&gt;&lt;font face=&quot;Verdana&quot; style=&quot;font-size: 36px; color: rgb(95, 255, 47);&quot;&gt;+&lt;/font&gt;&lt;/b&gt;" style="text;html=1;align=center;verticalAlign=middle;whiteSpace=wrap;rounded=0;strokeColor=none;" parent="1" vertex="1">
          <mxGeometry x="-620" y="705" width="100" height="50" as="geometry" />
        </mxCell>
        <mxCell id="4vSVzNAN4Ji2UqAIxyda-1" value="Природа&lt;div&gt;катастрофа&lt;/div&gt;" style="ellipse;whiteSpace=wrap;html=1;aspect=fixed;" vertex="1" parent="1">
          <mxGeometry x="-600" y="450" width="80" height="80" as="geometry" />
        </mxCell>
        <mxCell id="4vSVzNAN4Ji2UqAIxyda-2" value="облесение" style="ellipse;whiteSpace=wrap;html=1;aspect=fixed;" vertex="1" parent="1">
          <mxGeometry x="-440" y="350" width="80" height="80" as="geometry" />
        </mxCell>
        <mxCell id="4vSVzNAN4Ji2UqAIxyda-3" value="биоразнообразие" style="ellipse;whiteSpace=wrap;html=1;aspect=fixed;" vertex="1" parent="1">
          <mxGeometry x="-310" y="490" width="110" height="110" as="geometry" />
        </mxCell>
        <mxCell id="4vSVzNAN4Ji2UqAIxyda-4" value="защита окружаюший&lt;div&gt;среды&lt;/div&gt;" style="ellipse;whiteSpace=wrap;html=1;aspect=fixed;" vertex="1" parent="1">
          <mxGeometry x="-460" y="640" width="80" height="80" as="geometry" />
        </mxCell>
        <mxCell id="4vSVzNAN4Ji2UqAIxyda-5" value="население" style="ellipse;whiteSpace=wrap;html=1;aspect=fixed;" vertex="1" parent="1">
          <mxGeometry x="-690" y="750" width="80" height="80" as="geometry" />
        </mxCell>
        <mxCell id="4vSVzNAN4Ji2UqAIxyda-6" value="условия среды обитания" style="ellipse;whiteSpace=wrap;html=1;aspect=fixed;" vertex="1" parent="1">
          <mxGeometry x="-670" y="280" width="80" height="80" as="geometry" />
        </mxCell>
        <mxCell id="4vSVzNAN4Ji2UqAIxyda-7" value="окружающая&lt;div&gt;среда&lt;/div&gt;" style="ellipse;whiteSpace=wrap;html=1;aspect=fixed;" vertex="1" parent="1">
          <mxGeometry x="-820" y="400" width="80" height="80" as="geometry" />
        </mxCell>
        <mxCell id="4vSVzNAN4Ji2UqAIxyda-8" value="экономическое&lt;div&gt;развитие&lt;/div&gt;" style="ellipse;whiteSpace=wrap;html=1;aspect=fixed;" vertex="1" parent="1">
          <mxGeometry x="-820" y="570" width="100" height="100" as="geometry" />
        </mxCell>
        <mxCell id="4vSVzNAN4Ji2UqAIxyda-9" value="Городское строительство" style="ellipse;whiteSpace=wrap;html=1;aspect=fixed;" vertex="1" parent="1">
          <mxGeometry x="-990" y="430" width="90" height="90" as="geometry" />
        </mxCell>
        <mxCell id="4vSVzNAN4Ji2UqAIxyda-10" value="Массовая добыча ресурсов" style="ellipse;whiteSpace=wrap;html=1;aspect=fixed;" vertex="1" parent="1">
          <mxGeometry x="-900" y="280" width="80" height="80" as="geometry" />
        </mxCell>
        <mxCell id="4vSVzNAN4Ji2UqAIxyda-11" value="" style="endArrow=classic;html=1;rounded=0;exitX=0;exitY=0;exitDx=0;exitDy=0;entryX=1;entryY=0.5;entryDx=0;entryDy=0;" edge="1" parent="1" source="4vSVzNAN4Ji2UqAIxyda-2" target="4vSVzNAN4Ji2UqAIxyda-6">
          <mxGeometry width="50" height="50" relative="1" as="geometry">
            <mxPoint x="-480" y="340" as="sourcePoint" />
            <mxPoint x="-430" y="290" as="targetPoint" />
          </mxGeometry>
        </mxCell>
        <mxCell id="4vSVzNAN4Ji2UqAIxyda-12" value="" style="endArrow=classic;html=1;rounded=0;exitX=1;exitY=1;exitDx=0;exitDy=0;" edge="1" parent="1" source="4vSVzNAN4Ji2UqAIxyda-2" target="4vSVzNAN4Ji2UqAIxyda-3">
          <mxGeometry width="50" height="50" relative="1" as="geometry">
            <mxPoint x="-360" y="420" as="sourcePoint" />
            <mxPoint x="-310" y="370" as="targetPoint" />
          </mxGeometry>
        </mxCell>
        <mxCell id="4vSVzNAN4Ji2UqAIxyda-13" value="" style="endArrow=classic;html=1;rounded=0;exitX=0.5;exitY=0;exitDx=0;exitDy=0;entryX=0.338;entryY=1.013;entryDx=0;entryDy=0;entryPerimeter=0;" edge="1" parent="1" source="4vSVzNAN4Ji2UqAIxyda-4" target="4vSVzNAN4Ji2UqAIxyda-2">
          <mxGeometry width="50" height="50" relative="1" as="geometry">
            <mxPoint x="-450" y="600" as="sourcePoint" />
            <mxPoint x="-400" y="550" as="targetPoint" />
          </mxGeometry>
        </mxCell>
        <mxCell id="4vSVzNAN4Ji2UqAIxyda-14" value="" style="endArrow=classic;html=1;rounded=0;exitX=0.95;exitY=0.213;exitDx=0;exitDy=0;exitPerimeter=0;entryX=0.363;entryY=0.975;entryDx=0;entryDy=0;entryPerimeter=0;" edge="1" parent="1" source="4vSVzNAN4Ji2UqAIxyda-5" target="4vSVzNAN4Ji2UqAIxyda-1">
          <mxGeometry width="50" height="50" relative="1" as="geometry">
            <mxPoint x="-580" y="660" as="sourcePoint" />
            <mxPoint x="-530" y="610" as="targetPoint" />
          </mxGeometry>
        </mxCell>
        <mxCell id="4vSVzNAN4Ji2UqAIxyda-15" value="" style="endArrow=classic;html=1;rounded=0;entryX=0.813;entryY=0.963;entryDx=0;entryDy=0;entryPerimeter=0;" edge="1" parent="1" source="4vSVzNAN4Ji2UqAIxyda-4" target="4vSVzNAN4Ji2UqAIxyda-1">
          <mxGeometry width="50" height="50" relative="1" as="geometry">
            <mxPoint x="-550" y="660" as="sourcePoint" />
            <mxPoint x="-500" y="610" as="targetPoint" />
          </mxGeometry>
        </mxCell>
        <mxCell id="4vSVzNAN4Ji2UqAIxyda-16" value="" style="endArrow=classic;html=1;rounded=0;exitX=0.938;exitY=0.763;exitDx=0;exitDy=0;exitPerimeter=0;entryX=0.038;entryY=0.688;entryDx=0;entryDy=0;entryPerimeter=0;" edge="1" parent="1" source="4vSVzNAN4Ji2UqAIxyda-17" target="4vSVzNAN4Ji2UqAIxyda-5">
          <mxGeometry width="50" height="50" relative="1" as="geometry">
            <mxPoint x="-770" y="800" as="sourcePoint" />
            <mxPoint x="-720" y="750" as="targetPoint" />
          </mxGeometry>
        </mxCell>
        <mxCell id="4vSVzNAN4Ji2UqAIxyda-17" value="Развитие человеческой цивилизации" style="ellipse;whiteSpace=wrap;html=1;aspect=fixed;" vertex="1" parent="1">
          <mxGeometry x="-870" y="690" width="80" height="80" as="geometry" />
        </mxCell>
        <mxCell id="4vSVzNAN4Ji2UqAIxyda-18" value="" style="endArrow=classic;html=1;rounded=0;exitX=1;exitY=0.5;exitDx=0;exitDy=0;entryX=0;entryY=0.7;entryDx=0;entryDy=0;entryPerimeter=0;" edge="1" parent="1" source="4vSVzNAN4Ji2UqAIxyda-17" target="4vSVzNAN4Ji2UqAIxyda-4">
          <mxGeometry width="50" height="50" relative="1" as="geometry">
            <mxPoint x="-760" y="730" as="sourcePoint" />
            <mxPoint x="-710" y="680" as="targetPoint" />
          </mxGeometry>
        </mxCell>
        <mxCell id="4vSVzNAN4Ji2UqAIxyda-19" value="" style="endArrow=classic;html=1;rounded=0;entryX=0.938;entryY=0.663;entryDx=0;entryDy=0;entryPerimeter=0;exitX=0.013;exitY=0.363;exitDx=0;exitDy=0;exitPerimeter=0;" edge="1" parent="1" source="4vSVzNAN4Ji2UqAIxyda-4" target="4vSVzNAN4Ji2UqAIxyda-7">
          <mxGeometry width="50" height="50" relative="1" as="geometry">
            <mxPoint x="-700" y="660" as="sourcePoint" />
            <mxPoint x="-650" y="610" as="targetPoint" />
          </mxGeometry>
        </mxCell>
        <mxCell id="4vSVzNAN4Ji2UqAIxyda-20" value="" style="endArrow=classic;html=1;rounded=0;exitX=0.1;exitY=0.75;exitDx=0;exitDy=0;exitPerimeter=0;entryX=1;entryY=0.34;entryDx=0;entryDy=0;entryPerimeter=0;" edge="1" parent="1" source="4vSVzNAN4Ji2UqAIxyda-1" target="4vSVzNAN4Ji2UqAIxyda-8">
          <mxGeometry width="50" height="50" relative="1" as="geometry">
            <mxPoint x="-690" y="660" as="sourcePoint" />
            <mxPoint x="-640" y="610" as="targetPoint" />
          </mxGeometry>
        </mxCell>
        <mxCell id="4vSVzNAN4Ji2UqAIxyda-21" value="" style="endArrow=classic;html=1;rounded=0;entryX=1.033;entryY=0.611;entryDx=0;entryDy=0;entryPerimeter=0;exitX=0.05;exitY=0.7;exitDx=0;exitDy=0;exitPerimeter=0;" edge="1" parent="1" source="4vSVzNAN4Ji2UqAIxyda-1" target="4vSVzNAN4Ji2UqAIxyda-9">
          <mxGeometry width="50" height="50" relative="1" as="geometry">
            <mxPoint x="-890" y="590" as="sourcePoint" />
            <mxPoint x="-840" y="540" as="targetPoint" />
          </mxGeometry>
        </mxCell>
        <mxCell id="4vSVzNAN4Ji2UqAIxyda-22" value="" style="endArrow=classic;html=1;rounded=0;entryX=0;entryY=0;entryDx=0;entryDy=0;exitX=1;exitY=1;exitDx=0;exitDy=0;" edge="1" parent="1" source="4vSVzNAN4Ji2UqAIxyda-9" target="4vSVzNAN4Ji2UqAIxyda-8">
          <mxGeometry width="50" height="50" relative="1" as="geometry">
            <mxPoint x="-900" y="640" as="sourcePoint" />
            <mxPoint x="-810" y="590" as="targetPoint" />
          </mxGeometry>
        </mxCell>
        <mxCell id="4vSVzNAN4Ji2UqAIxyda-24" value="" style="endArrow=classic;html=1;rounded=0;entryX=0.622;entryY=0.967;entryDx=0;entryDy=0;entryPerimeter=0;exitX=0;exitY=0;exitDx=0;exitDy=0;" edge="1" parent="1" source="4vSVzNAN4Ji2UqAIxyda-17" target="4vSVzNAN4Ji2UqAIxyda-9">
          <mxGeometry width="50" height="50" relative="1" as="geometry">
            <mxPoint x="-920" y="670" as="sourcePoint" />
            <mxPoint x="-870" y="620" as="targetPoint" />
          </mxGeometry>
        </mxCell>
        <mxCell id="4vSVzNAN4Ji2UqAIxyda-25" value="" style="endArrow=classic;html=1;rounded=0;entryX=0;entryY=1;entryDx=0;entryDy=0;exitX=0.5;exitY=0;exitDx=0;exitDy=0;" edge="1" parent="1" source="4vSVzNAN4Ji2UqAIxyda-9" target="4vSVzNAN4Ji2UqAIxyda-10">
          <mxGeometry width="50" height="50" relative="1" as="geometry">
            <mxPoint x="-980" y="430" as="sourcePoint" />
            <mxPoint x="-930" y="380" as="targetPoint" />
          </mxGeometry>
        </mxCell>
        <mxCell id="4vSVzNAN4Ji2UqAIxyda-26" value="" style="endArrow=classic;html=1;rounded=0;exitX=1;exitY=0.5;exitDx=0;exitDy=0;entryX=0.038;entryY=0.588;entryDx=0;entryDy=0;entryPerimeter=0;" edge="1" parent="1" source="4vSVzNAN4Ji2UqAIxyda-10" target="4vSVzNAN4Ji2UqAIxyda-6">
          <mxGeometry width="50" height="50" relative="1" as="geometry">
            <mxPoint x="-790" y="350" as="sourcePoint" />
            <mxPoint x="-671" y="336" as="targetPoint" />
          </mxGeometry>
        </mxCell>
        <mxCell id="4vSVzNAN4Ji2UqAIxyda-27" value="" style="endArrow=classic;html=1;rounded=0;entryX=0.788;entryY=0.963;entryDx=0;entryDy=0;entryPerimeter=0;exitX=0.263;exitY=0.063;exitDx=0;exitDy=0;exitPerimeter=0;" edge="1" parent="1" source="4vSVzNAN4Ji2UqAIxyda-1" target="4vSVzNAN4Ji2UqAIxyda-6">
          <mxGeometry width="50" height="50" relative="1" as="geometry">
            <mxPoint x="-640" y="460" as="sourcePoint" />
            <mxPoint x="-590" y="410" as="targetPoint" />
          </mxGeometry>
        </mxCell>
        <mxCell id="4vSVzNAN4Ji2UqAIxyda-28" value="" style="endArrow=classic;html=1;rounded=0;exitX=0.763;exitY=0.95;exitDx=0;exitDy=0;exitPerimeter=0;entryX=0.288;entryY=0.05;entryDx=0;entryDy=0;entryPerimeter=0;" edge="1" parent="1" source="4vSVzNAN4Ji2UqAIxyda-10" target="4vSVzNAN4Ji2UqAIxyda-7">
          <mxGeometry width="50" height="50" relative="1" as="geometry">
            <mxPoint x="-840" y="430" as="sourcePoint" />
            <mxPoint x="-790" y="380" as="targetPoint" />
          </mxGeometry>
        </mxCell>
        <mxCell id="4vSVzNAN4Ji2UqAIxyda-29" value="" style="endArrow=classic;html=1;rounded=0;entryX=0.963;entryY=0.363;entryDx=0;entryDy=0;entryPerimeter=0;exitX=0;exitY=0.5;exitDx=0;exitDy=0;" edge="1" parent="1" source="4vSVzNAN4Ji2UqAIxyda-2" target="4vSVzNAN4Ji2UqAIxyda-7">
          <mxGeometry width="50" height="50" relative="1" as="geometry">
            <mxPoint x="-700" y="460" as="sourcePoint" />
            <mxPoint x="-650" y="410" as="targetPoint" />
          </mxGeometry>
        </mxCell>
        <mxCell id="4vSVzNAN4Ji2UqAIxyda-30" value="" style="endArrow=classic;html=1;rounded=0;exitX=0.988;exitY=0.638;exitDx=0;exitDy=0;exitPerimeter=0;entryX=0.3;entryY=0.973;entryDx=0;entryDy=0;entryPerimeter=0;" edge="1" parent="1" source="4vSVzNAN4Ji2UqAIxyda-4" target="4vSVzNAN4Ji2UqAIxyda-3">
          <mxGeometry width="50" height="50" relative="1" as="geometry">
            <mxPoint x="-340" y="740" as="sourcePoint" />
            <mxPoint x="-290" y="690" as="targetPoint" />
          </mxGeometry>
        </mxCell>
        <mxCell id="4vSVzNAN4Ji2UqAIxyda-31" value="&lt;b&gt;&lt;font face=&quot;Verdana&quot; style=&quot;font-size: 36px; color: rgb(95, 255, 47);&quot;&gt;+&lt;/font&gt;&lt;/b&gt;" style="text;html=1;align=center;verticalAlign=middle;whiteSpace=wrap;rounded=0;strokeColor=none;" vertex="1" parent="1">
          <mxGeometry x="-810" y="770" width="100" height="50" as="geometry" />
        </mxCell>
        <mxCell id="4vSVzNAN4Ji2UqAIxyda-32" value="&lt;b&gt;&lt;font face=&quot;Verdana&quot; style=&quot;font-size: 36px; color: rgb(95, 255, 47);&quot;&gt;+&lt;/font&gt;&lt;/b&gt;" style="text;html=1;align=center;verticalAlign=middle;whiteSpace=wrap;rounded=0;strokeColor=none;" vertex="1" parent="1">
          <mxGeometry x="-960" y="610" width="100" height="50" as="geometry" />
        </mxCell>
        <mxCell id="4vSVzNAN4Ji2UqAIxyda-33" value="&lt;b&gt;&lt;font face=&quot;Verdana&quot; style=&quot;font-size: 36px; color: rgb(95, 255, 47);&quot;&gt;+&lt;/font&gt;&lt;/b&gt;" style="text;html=1;align=center;verticalAlign=middle;whiteSpace=wrap;rounded=0;strokeColor=none;" vertex="1" parent="1">
          <mxGeometry x="-910" y="535" width="100" height="50" as="geometry" />
        </mxCell>
        <mxCell id="4vSVzNAN4Ji2UqAIxyda-34" value="&lt;b&gt;&lt;font face=&quot;Verdana&quot; style=&quot;font-size: 36px; color: rgb(95, 255, 47);&quot;&gt;+&lt;/font&gt;&lt;/b&gt;" style="text;html=1;align=center;verticalAlign=middle;whiteSpace=wrap;rounded=0;strokeColor=none;" vertex="1" parent="1">
          <mxGeometry x="-970" y="340" width="100" height="50" as="geometry" />
        </mxCell>
        <mxCell id="4vSVzNAN4Ji2UqAIxyda-35" value="&lt;b&gt;&lt;font face=&quot;Verdana&quot; style=&quot;font-size: 36px; color: rgb(95, 255, 47);&quot;&gt;+&lt;/font&gt;&lt;/b&gt;" style="text;html=1;align=center;verticalAlign=middle;whiteSpace=wrap;rounded=0;strokeColor=none;" vertex="1" parent="1">
          <mxGeometry x="-570" y="295" width="100" height="50" as="geometry" />
        </mxCell>
        <mxCell id="4vSVzNAN4Ji2UqAIxyda-36" value="&lt;b&gt;&lt;font face=&quot;Verdana&quot; style=&quot;font-size: 36px; color: rgb(95, 255, 47);&quot;&gt;+&lt;/font&gt;&lt;/b&gt;" style="text;html=1;align=center;verticalAlign=middle;whiteSpace=wrap;rounded=0;strokeColor=none;" vertex="1" parent="1">
          <mxGeometry x="-350" y="430" width="100" height="50" as="geometry" />
        </mxCell>
        <mxCell id="4vSVzNAN4Ji2UqAIxyda-37" value="&lt;b&gt;&lt;font face=&quot;Verdana&quot; style=&quot;font-size: 36px; color: rgb(95, 255, 47);&quot;&gt;+&lt;/font&gt;&lt;/b&gt;" style="text;html=1;align=center;verticalAlign=middle;whiteSpace=wrap;rounded=0;strokeColor=none;" vertex="1" parent="1">
          <mxGeometry x="-330" y="610" width="100" height="50" as="geometry" />
        </mxCell>
        <mxCell id="4vSVzNAN4Ji2UqAIxyda-38" value="&lt;b&gt;&lt;font face=&quot;Verdana&quot; style=&quot;font-size: 36px; color: rgb(95, 255, 47);&quot;&gt;+&lt;/font&gt;&lt;/b&gt;" style="text;html=1;align=center;verticalAlign=middle;whiteSpace=wrap;rounded=0;strokeColor=none;" vertex="1" parent="1">
          <mxGeometry x="-440" y="500" width="100" height="50" as="geometry" />
        </mxCell>
        <mxCell id="4vSVzNAN4Ji2UqAIxyda-39" value="&lt;b&gt;&lt;font face=&quot;Verdana&quot; style=&quot;font-size: 36px; color: rgb(95, 255, 47);&quot;&gt;+&lt;/font&gt;&lt;/b&gt;" style="text;html=1;align=center;verticalAlign=middle;whiteSpace=wrap;rounded=0;strokeColor=none;" vertex="1" parent="1">
          <mxGeometry x="-580" y="360" width="100" height="50" as="geometry" />
        </mxCell>
        <mxCell id="4vSVzNAN4Ji2UqAIxyda-40" value="&lt;b&gt;&lt;font face=&quot;Verdana&quot; style=&quot;font-size: 36px; color: rgb(255, 0, 0);&quot;&gt;-&lt;/font&gt;&lt;/b&gt;" style="text;html=1;align=center;verticalAlign=middle;whiteSpace=wrap;rounded=0;" vertex="1" parent="1">
          <mxGeometry x="-780" y="270" width="100" height="50" as="geometry" />
        </mxCell>
        <mxCell id="4vSVzNAN4Ji2UqAIxyda-41" value="&lt;b&gt;&lt;font face=&quot;Verdana&quot; style=&quot;font-size: 36px; color: rgb(255, 0, 0);&quot;&gt;-&lt;/font&gt;&lt;/b&gt;" style="text;html=1;align=center;verticalAlign=middle;whiteSpace=wrap;rounded=0;" vertex="1" parent="1">
          <mxGeometry x="-660" y="630" width="100" height="50" as="geometry" />
        </mxCell>
        <mxCell id="4vSVzNAN4Ji2UqAIxyda-42" value="&lt;b&gt;&lt;font face=&quot;Verdana&quot; style=&quot;font-size: 36px; color: rgb(255, 0, 0);&quot;&gt;-&lt;/font&gt;&lt;/b&gt;" style="text;html=1;align=center;verticalAlign=middle;whiteSpace=wrap;rounded=0;" vertex="1" parent="1">
          <mxGeometry x="-550" y="570" width="100" height="50" as="geometry" />
        </mxCell>
        <mxCell id="4vSVzNAN4Ji2UqAIxyda-43" value="&lt;b&gt;&lt;font face=&quot;Verdana&quot; style=&quot;font-size: 36px; color: rgb(255, 0, 0);&quot;&gt;-&lt;/font&gt;&lt;/b&gt;" style="text;html=1;align=center;verticalAlign=middle;whiteSpace=wrap;rounded=0;" vertex="1" parent="1">
          <mxGeometry x="-700" y="540" width="100" height="50" as="geometry" />
        </mxCell>
        <mxCell id="4vSVzNAN4Ji2UqAIxyda-44" value="&lt;b&gt;&lt;font face=&quot;Verdana&quot; style=&quot;font-size: 36px; color: rgb(95, 255, 47);&quot;&gt;+&lt;/font&gt;&lt;/b&gt;" style="text;html=1;align=center;verticalAlign=middle;whiteSpace=wrap;rounded=0;strokeColor=none;" vertex="1" parent="1">
          <mxGeometry x="-660" y="530" width="100" height="50" as="geometry" />
        </mxCell>
        <mxCell id="4vSVzNAN4Ji2UqAIxyda-45" value="&lt;b&gt;&lt;font face=&quot;Verdana&quot; style=&quot;font-size: 36px; color: rgb(255, 0, 0);&quot;&gt;-&lt;/font&gt;&lt;/b&gt;" style="text;html=1;align=center;verticalAlign=middle;whiteSpace=wrap;rounded=0;" vertex="1" parent="1">
          <mxGeometry x="-810" y="480" width="100" height="50" as="geometry" />
        </mxCell>
        <mxCell id="4vSVzNAN4Ji2UqAIxyda-46" value="&lt;b&gt;&lt;font face=&quot;Verdana&quot; style=&quot;font-size: 36px; color: rgb(255, 0, 0);&quot;&gt;-&lt;/font&gt;&lt;/b&gt;" style="text;html=1;align=center;verticalAlign=middle;whiteSpace=wrap;rounded=0;" vertex="1" parent="1">
          <mxGeometry x="-850" y="340" width="100" height="50" as="geometry" />
        </mxCell>
      </root>
    </mxGraphModel>
  </diagram>
</mxfile>
